<?xml version="1.0" encoding="UTF-8" standalone="no"?>
<!DOCTYPE svg PUBLIC "-//W3C//DTD SVG 1.1//EN"
 "http://www.w3.org/Graphics/SVG/1.1/DTD/svg11.dtd">
<!-- Generated by graphviz version 2.47.0 (20210316.0004)
 -->
<!-- Title: dependencies Pages: 1 -->
<svg width="504pt" height="211pt"
 viewBox="0.00 0.00 504.00 211.00" xmlns="http://www.w3.org/2000/svg" xmlns:xlink="http://www.w3.org/1999/xlink">
<g id="graph0" class="graph" transform="scale(1 1) rotate(0) translate(4 207)">
<title>dependencies</title>
<polygon fill="white" stroke="transparent" points="-4,4 -4,-207 500,-207 500,4 -4,4"/>
<text text-anchor="start" x="227.01" y="-42.4" font-family="sans-serif" font-weight="bold" font-size="14.00">Legend</text>
<polygon fill="#ffffb3" stroke="transparent" points="14,-10 14,-30 34,-30 34,-10 14,-10"/>
<text text-anchor="start" x="37.63" y="-15.4" font-family="sans-serif" font-size="14.00"> &#160;Declarations</text>
<polygon fill="#8dd3c7" stroke="transparent" points="127,-10 127,-30 147,-30 147,-10 127,-10"/>
<text text-anchor="start" x="150.73" y="-15.4" font-family="sans-serif" font-size="14.00"> &#160;Module</text>
<polygon fill="#80b1d3" stroke="transparent" points="213,-10 213,-30 233,-30 233,-10 213,-10"/>
<text text-anchor="start" x="236.78" y="-15.4" font-family="sans-serif" font-size="14.00"> &#160;Bootstrap</text>
<polygon fill="#fdb462" stroke="transparent" points="310,-10 310,-30 330,-30 330,-10 310,-10"/>
<text text-anchor="start" x="333.67" y="-15.4" font-family="sans-serif" font-size="14.00"> &#160;Providers</text>
<polygon fill="#fb8072" stroke="transparent" points="406,-10 406,-30 426,-30 426,-10 406,-10"/>
<text text-anchor="start" x="429.73" y="-15.4" font-family="sans-serif" font-size="14.00"> &#160;Exports</text>
<g id="clust1" class="cluster">
<title>cluster_PollPageModule</title>
<polygon fill="none" stroke="black" stroke-dasharray="1,5" points="110,-70 110,-195 386,-195 386,-70 110,-70"/>
</g>
<g id="clust4" class="cluster">
<title>cluster_PollPageModule_imports</title>
<polygon fill="none" stroke="black" points="208,-78 208,-130 378,-130 378,-78 208,-78"/>
</g>
<g id="clust2" class="cluster">
<title>cluster_PollPageModule_declarations</title>
<polygon fill="none" stroke="black" points="118,-78 118,-130 200,-130 200,-78 118,-78"/>
</g>
<!-- PollPage -->
<g id="node1" class="node">
<title>PollPage</title>
<polygon fill="#ffffb3" stroke="black" points="191.78,-122 126.22,-122 126.22,-86 191.78,-86 191.78,-122"/>
<text text-anchor="middle" x="159" y="-99.8" font-family="Times,serif" font-size="14.00">PollPage</text>
</g>
<!-- PollPageModule -->
<g id="node2" class="node">
<title>PollPageModule</title>
<polygon fill="#8dd3c7" stroke="black" points="287.83,-187 284.83,-191 263.83,-191 260.83,-187 178.17,-187 178.17,-151 287.83,-151 287.83,-187"/>
<text text-anchor="middle" x="233" y="-164.8" font-family="Times,serif" font-size="14.00">PollPageModule</text>
</g>
<!-- PollPage&#45;&gt;PollPageModule -->
<g id="edge1" class="edge">
<title>PollPage&#45;&gt;PollPageModule</title>
<path fill="none" stroke="black" d="M185.11,-122.11C185.11,-122.11 185.11,-140.99 185.11,-140.99"/>
<polygon fill="black" stroke="black" points="181.61,-140.99 185.11,-150.99 188.61,-140.99 181.61,-140.99"/>
</g>
<!-- PollPageRoutingModule -->
<g id="node3" class="node">
<title>PollPageRoutingModule</title>
<polygon fill="#8dd3c7" stroke="black" points="370.44,-122 367.44,-126 346.44,-126 343.44,-122 215.56,-122 215.56,-86 370.44,-86 370.44,-122"/>
<text text-anchor="middle" x="293" y="-99.8" font-family="Times,serif" font-size="14.00">PollPageRoutingModule</text>
</g>
<!-- PollPageRoutingModule&#45;&gt;PollPageModule -->
<g id="edge2" class="edge">
<title>PollPageRoutingModule&#45;&gt;PollPageModule</title>
<path fill="none" stroke="black" d="M251.72,-122.11C251.72,-122.11 251.72,-140.99 251.72,-140.99"/>
<polygon fill="black" stroke="black" points="248.22,-140.99 251.72,-150.99 255.22,-140.99 248.22,-140.99"/>
</g>
</g>
</svg>
