<?xml version="1.0" encoding="UTF-8" standalone="no"?>
<!DOCTYPE svg PUBLIC "-//W3C//DTD SVG 1.1//EN"
 "http://www.w3.org/Graphics/SVG/1.1/DTD/svg11.dtd">
<!-- Generated by graphviz version 2.47.0 (20210316.0004)
 -->
<!-- Title: dependencies Pages: 1 -->
<svg width="504pt" height="211pt"
 viewBox="0.00 0.00 504.00 211.00" xmlns="http://www.w3.org/2000/svg" xmlns:xlink="http://www.w3.org/1999/xlink">
<g id="graph0" class="graph" transform="scale(1 1) rotate(0) translate(4 207)">
<title>dependencies</title>
<polygon fill="white" stroke="transparent" points="-4,4 -4,-207 500,-207 500,4 -4,4"/>
<text text-anchor="start" x="227.01" y="-42.4" font-family="sans-serif" font-weight="bold" font-size="14.00">Legend</text>
<polygon fill="#ffffb3" stroke="transparent" points="14,-10 14,-30 34,-30 34,-10 14,-10"/>
<text text-anchor="start" x="37.63" y="-15.4" font-family="sans-serif" font-size="14.00"> &#160;Declarations</text>
<polygon fill="#8dd3c7" stroke="transparent" points="127,-10 127,-30 147,-30 147,-10 127,-10"/>
<text text-anchor="start" x="150.73" y="-15.4" font-family="sans-serif" font-size="14.00"> &#160;Module</text>
<polygon fill="#80b1d3" stroke="transparent" points="213,-10 213,-30 233,-30 233,-10 213,-10"/>
<text text-anchor="start" x="236.78" y="-15.4" font-family="sans-serif" font-size="14.00"> &#160;Bootstrap</text>
<polygon fill="#fdb462" stroke="transparent" points="310,-10 310,-30 330,-30 330,-10 310,-10"/>
<text text-anchor="start" x="333.67" y="-15.4" font-family="sans-serif" font-size="14.00"> &#160;Providers</text>
<polygon fill="#fb8072" stroke="transparent" points="406,-10 406,-30 426,-30 426,-10 406,-10"/>
<text text-anchor="start" x="429.73" y="-15.4" font-family="sans-serif" font-size="14.00"> &#160;Exports</text>
<g id="clust1" class="cluster">
<title>cluster_actualstatusPageModule</title>
<polygon fill="none" stroke="black" stroke-dasharray="1,5" points="63,-70 63,-195 433,-195 433,-70 63,-70"/>
</g>
<g id="clust2" class="cluster">
<title>cluster_actualstatusPageModule_declarations</title>
<polygon fill="none" stroke="black" points="297,-78 297,-130 425,-130 425,-78 297,-78"/>
</g>
<g id="clust4" class="cluster">
<title>cluster_actualstatusPageModule_imports</title>
<polygon fill="none" stroke="black" points="71,-78 71,-130 289,-130 289,-78 71,-78"/>
</g>
<!-- ActualstatusPage -->
<g id="node1" class="node">
<title>ActualstatusPage</title>
<polygon fill="#ffffb3" stroke="black" points="417.41,-122 304.59,-122 304.59,-86 417.41,-86 417.41,-122"/>
<text text-anchor="middle" x="361" y="-99.8" font-family="Times,serif" font-size="14.00">ActualstatusPage</text>
</g>
<!-- actualstatusPageModule -->
<g id="node2" class="node">
<title>actualstatusPageModule</title>
<polygon fill="#8dd3c7" stroke="black" points="340.07,-187 337.07,-191 316.07,-191 313.07,-187 187.93,-187 187.93,-151 340.07,-151 340.07,-187"/>
<text text-anchor="middle" x="264" y="-164.8" font-family="Times,serif" font-size="14.00">actualstatusPageModule</text>
</g>
<!-- ActualstatusPage&#45;&gt;actualstatusPageModule -->
<g id="edge1" class="edge">
<title>ActualstatusPage&#45;&gt;actualstatusPageModule</title>
<path fill="none" stroke="black" d="M322.41,-122.11C322.41,-122.11 322.41,-140.99 322.41,-140.99"/>
<polygon fill="black" stroke="black" points="318.91,-140.99 322.41,-150.99 325.91,-140.99 318.91,-140.99"/>
</g>
<!-- ActualstatusPageRoutingModule -->
<g id="node3" class="node">
<title>ActualstatusPageRoutingModule</title>
<polygon fill="#8dd3c7" stroke="black" points="280.58,-122 277.58,-126 256.58,-126 253.58,-122 79.42,-122 79.42,-86 280.58,-86 280.58,-122"/>
<text text-anchor="middle" x="180" y="-99.8" font-family="Times,serif" font-size="14.00">ActualstatusPageRoutingModule</text>
</g>
<!-- ActualstatusPageRoutingModule&#45;&gt;actualstatusPageModule -->
<g id="edge2" class="edge">
<title>ActualstatusPageRoutingModule&#45;&gt;actualstatusPageModule</title>
<path fill="none" stroke="black" d="M234.25,-122.11C234.25,-122.11 234.25,-140.99 234.25,-140.99"/>
<polygon fill="black" stroke="black" points="230.75,-140.99 234.25,-150.99 237.75,-140.99 230.75,-140.99"/>
</g>
</g>
</svg>
