<?xml version="1.0" encoding="utf-8"?>
<!-- Generator: Adobe Illustrator 25.2.3, SVG Export Plug-In . SVG Version: 6.00 Build 0)  -->
<svg version="1.1" id="Layer_1" xmlns="http://www.w3.org/2000/svg" xmlns:xlink="http://www.w3.org/1999/xlink" x="0px" y="0px"
	 viewBox="0 0 30 30" style="enable-background:new 0 0 30 30;" xml:space="preserve">
<style type="text/css">
	.st0{fill:#010101;}
</style>
<path class="st0" d="M1.6,10c0.3,0,0.6-0.1,0.9-0.3C2.7,9.6,2.9,9.3,3,9c0.1-0.3,0.1-0.7,0.1-1C3.1,7.7,2.9,7.4,2.7,7.2
	C2.5,6.9,2.2,6.8,1.9,6.7C1.6,6.6,1.3,6.7,1,6.8C0.7,6.9,0.5,7.2,0.3,7.4C0.1,7.7,0,8,0,8.3c0,0.4,0.2,0.9,0.5,1.2
	C0.8,9.8,1.2,10,1.6,10z M7.9,10H19c1.2,0,2.5-0.5,3.3-1.5c0.9-0.9,1.4-2.2,1.4-3.6c0-1.3-0.5-2.6-1.4-3.6C21.4,0.5,20.2,0,19,0
	c-0.8,0-1.7,0.2-2.4,0.7c-0.2,0.1-0.3,0.3-0.5,0.4c-0.1,0.2-0.2,0.4-0.3,0.6c-0.1,0.2-0.1,0.4-0.1,0.7c0,0.2,0.1,0.4,0.2,0.6
	c0.1,0.2,0.2,0.4,0.4,0.5c0.2,0.1,0.3,0.2,0.6,0.3c0.2,0.1,0.4,0.1,0.6,0c0.2,0,0.4-0.1,0.6-0.2c0.2-0.1,0.5-0.2,0.8-0.2
	c0.4,0,0.8,0.2,1.1,0.5c0.3,0.3,0.5,0.8,0.5,1.2c0,0.4-0.2,0.9-0.5,1.2c-0.3,0.3-0.7,0.5-1.1,0.5H7.9c-0.4,0-0.8,0.2-1.1,0.5
	C6.5,7.5,6.3,7.9,6.3,8.3c0,0.4,0.2,0.9,0.5,1.2C7.1,9.8,7.5,10,7.9,10z M1.6,16.7h11.1c0.4,0,0.8-0.2,1.1-0.5
	c0.3-0.3,0.5-0.7,0.5-1.2c0-0.4-0.2-0.9-0.5-1.2c-0.3-0.3-0.7-0.5-1.1-0.5h-11c-0.4,0-0.8,0.2-1.1,0.5C0.2,14.1,0,14.6,0,15
	c0,0.4,0.2,0.9,0.5,1.2C0.8,16.5,1.2,16.7,1.6,16.7z M28.4,10c0.3,0,0.6-0.1,0.9-0.3c0.3-0.2,0.5-0.4,0.6-0.7C30,8.7,30,8.4,30,8
	c-0.1-0.3-0.2-0.6-0.4-0.9C29.3,7,29,6.8,28.7,6.7c-0.3-0.1-0.6,0-0.9,0.1c-0.3,0.1-0.5,0.3-0.7,0.6c-0.2,0.3-0.3,0.6-0.3,0.9
	c0,0.4,0.2,0.9,0.5,1.2C27.6,9.8,28,10,28.4,10z M25.3,13.3H19c-0.4,0-0.8,0.2-1.1,0.5c-0.3,0.3-0.5,0.7-0.5,1.2
	c0,0.4,0.2,0.9,0.5,1.2c0.3,0.3,0.7,0.5,1.1,0.5h6.3c0.4,0,0.8,0.2,1.1,0.5c0.3,0.3,0.5,0.7,0.5,1.2c0,0.4-0.2,0.9-0.5,1.2
	c-0.3,0.3-0.7,0.5-1.1,0.5c-0.4,0-0.8,0.2-1.1,0.5c-0.3,0.3-0.5,0.7-0.5,1.2c0,0.4,0.2,0.9,0.5,1.2c0.3,0.3,0.7,0.5,1.1,0.5
	c1.2,0,2.5-0.5,3.3-1.5c0.9-0.9,1.4-2.2,1.4-3.6c0-1.3-0.5-2.6-1.4-3.6C27.7,13.9,26.5,13.3,25.3,13.3z M15.8,20H9.5
	c-0.4,0-0.8,0.2-1.1,0.5c-0.3,0.3-0.5,0.7-0.5,1.2c0,0.4,0.2,0.9,0.5,1.2c0.3,0.3,0.7,0.5,1.1,0.5h6.3c0.4,0,0.8,0.2,1.1,0.5
	c0.3,0.3,0.5,0.7,0.5,1.2c0,0.4-0.2,0.9-0.5,1.2c-0.3,0.3-0.7,0.5-1.1,0.5c-0.3,0-0.6-0.1-0.8-0.2c-0.2-0.1-0.4-0.2-0.6-0.2
	c-0.2-0.1-0.4,0-0.6,0c-0.2,0-0.4,0.1-0.6,0.3c-0.2,0.1-0.3,0.3-0.4,0.5c-0.1,0.2-0.2,0.4-0.2,0.6c0,0.2,0,0.4,0.1,0.7
	c0.1,0.2,0.2,0.4,0.3,0.6c0.1,0.2,0.3,0.3,0.5,0.4c0.7,0.4,1.5,0.7,2.4,0.7c1.2,0,2.5-0.5,3.3-1.5c0.9-0.9,1.4-2.2,1.4-3.6
	c0-1.3-0.5-2.6-1.4-3.6C18.2,20.6,17,20,15.8,20z M3.2,20H1.6c-0.4,0-0.8,0.2-1.1,0.5C0.2,20.8,0,21.2,0,21.7c0,0.4,0.2,0.9,0.5,1.2
	c0.3,0.3,0.7,0.5,1.1,0.5h1.6c0.4,0,0.8-0.2,1.1-0.5c0.3-0.3,0.5-0.7,0.5-1.2c0-0.4-0.2-0.9-0.5-1.2C4,20.2,3.6,20,3.2,20z"/>
</svg>
