<?xml version="1.0" encoding="utf-8"?>
<!-- Generator: Adobe Illustrator 25.2.3, SVG Export Plug-In . SVG Version: 6.00 Build 0)  -->
<svg version="1.1" id="Layer_1" xmlns="http://www.w3.org/2000/svg" xmlns:xlink="http://www.w3.org/1999/xlink" x="0px" y="0px"
	 viewBox="0 0 20 24" style="enable-background:new 0 0 20 24;" xml:space="preserve">
<style type="text/css">
	.st0{enable-background:new    ;}
</style>
<path class="st0" d="M18.4,13.2V2.4C18.4,1.1,17.3,0,16,0H3.7C2.3,0,1.2,1.1,1.2,2.4v10.8c-0.3,0-0.6,0.1-0.9,0.4
	C0.1,13.8,0,14.1,0,14.4V24h2.5v-6h14.7v6h2.5v-9.6c0-0.3-0.1-0.6-0.4-0.8C19,13.3,18.7,13.2,18.4,13.2z M16,2.4v10.8h-2.5V2.4H16z
	 M11,2.4v10.8H8.6V2.4H11z M3.7,2.4h2.5v10.8H3.7V2.4z"/>
</svg>
