<svg id="Layer_1" data-name="Layer 1" xmlns="http://www.w3.org/2000/svg" viewBox="0 0 46.75 46.69"><defs><style>.cls-1{fill:#fff;}</style></defs><path class="cls-1" d="M18.45,15.9l3.78-3.5L19,9.34l-3.81,3.4ZM23.4,7l2.91,2.42,3.87-2.86-3.2-3ZM9.78,12.35,13,8.68,9.61,5.46,6.46,8.81Z" transform="translate(-1.85 -2.78)"/><path d="M47.92,18.35a37.22,37.22,0,0,1-1.6,6.2C43.46,31.8,39.68,34,32.19,31.87c-3-.87-3.66.51-5.33,2.4-5.89,6.67-2.15,11-3.46,14.84-.41,1.19-1.56-1.08-2.29,0-.47-1.22-.29-2.46-.54-3.73a38.4,38.4,0,0,0-2-7.27c-1.46-3.46-3.73-5.55-8.38-4.58-4.42.91-7.85-3-8.19-8.36-.27-4.23-.06-8.49-.06-13.23,5.34,3.16,10.2,2.81,14.81,6.21,1.73,1.28,4.62,5.62,3.83,8-.17.5-1.39,3.27-1.85,3.53-1.86-1.06-3.63-3.22-5.48-4.28l-.33.49L21.61,36l9.54-13.21c-.13-.2.64-1.57.51-1.77-2,1.43-4.56,6.15-6.67,7.67-3.2-4-2.92-10.36.46-12.67,7.17-4.91,15-8.85,22.56-13.19C48.27,12.35,49.25,10.6,47.92,18.35Z" transform="translate(-1.85 -2.78)"/><path d="M18.45,15.9l-3.24-3.16L19,9.34l3.21,3.06Z" transform="translate(-1.85 -2.78)"/><path d="M23.4,7,27,3.55l3.2,3L26.31,9.37Z" transform="translate(-1.85 -2.78)"/><path d="M9.78,12.35,6.46,8.81,9.61,5.46,13,8.68Z" transform="translate(-1.85 -2.78)"/></svg>