<?xml version="1.0" encoding="utf-8"?>
<!-- Generator: Adobe Illustrator 25.2.3, SVG Export Plug-In . SVG Version: 6.00 Build 0)  -->
<svg version="1.1" id="Layer_1" xmlns="http://www.w3.org/2000/svg" xmlns:xlink="http://www.w3.org/1999/xlink" x="0px" y="0px"
	 viewBox="0 0 30 30" style="enable-background:new 0 0 30 30;" xml:space="preserve">
<path d="M11.4,22.8c0,0-0.1,0-0.1,0c-1,0-2,0-2.9,0c-0.7,0-1.4,0-2.1,0c-1.2,0-2.3-0.5-3.2-1.3c-0.8-0.8-1.3-2-1.3-3.2
	c0-1.5,0.7-2.9,2-3.7c-0.1-0.5-0.2-1-0.2-1.5c0-4.1,3.3-7.4,7.4-7.4c1.3,0,2.6,0.4,3.8,1c1.1,0.7,2.1,1.7,2.7,2.8
	c0.4-0.4,0.9-0.8,1.5-1c0.6-0.2,1.1-0.3,1.7-0.3c0.7,0,1.4,0.2,2,0.5s1.2,0.7,1.6,1.3c0.4,0.5,0.7,1.2,0.9,1.8c0.1,0.7,0.1,1.4,0,2
	c0.9,0.3,1.8,0.8,2.4,1.6c0.6,0.8,0.9,1.7,0.9,2.7c0,2.5-2,4.5-4.5,4.5c-1.2,0-3.8,0.1-6.3,0.1C14.9,22.8,12.5,22.8,11.4,22.8z
	 M10.9,6.3c-3.7,0-6.7,3-6.7,6.7c0,0.5,0.1,1.1,0.2,1.6c0,0.1,0,0.1,0,0.2c0,0.1-0.1,0.1-0.1,0.2c-0.6,0.3-1,0.8-1.3,1.4
	c-0.3,0.6-0.5,1.2-0.5,1.9c0,1,0.4,2,1.1,2.7C4.2,21.6,5.2,22,6.2,22c0.8,0,1.4,0,2.1,0c0.8,0,1.7,0,2.9,0c0,0,0.1,0,0.1,0
	c1.1,0,3.6-0.1,6-0.1c2.5-0.1,5.2-0.1,6.3-0.1c1,0,2-0.4,2.7-1.1c0.7-0.7,1.1-1.7,1.1-2.7c0-0.9-0.3-1.7-0.9-2.4
	c-0.6-0.7-1.3-1.1-2.2-1.3c0,0-0.1,0-0.1-0.1c0,0-0.1-0.1-0.1-0.1c0,0,0-0.1,0-0.1c0,0,0-0.1,0-0.1c0.2-0.6,0.3-1.2,0.2-1.8
	c-0.1-0.6-0.3-1.2-0.7-1.7c-0.4-0.5-0.8-0.9-1.4-1.2c-0.5-0.3-1.1-0.4-1.7-0.4c-0.6,0-1.2,0.1-1.7,0.4c-0.5,0.3-1,0.6-1.3,1.1
	c0,0-0.1,0.1-0.1,0.1c-0.1,0-0.1,0-0.2,0c-0.1,0-0.1,0-0.2-0.1c0,0-0.1-0.1-0.1-0.1c-0.5-1.2-1.4-2.2-2.5-2.9
	C13.5,6.7,12.2,6.4,10.9,6.3z"/>
<path d="M13.4,16.1C13.4,16.1,13.4,16.1,13.4,16.1C13.5,16.2,13.5,16.2,13.4,16.1l0.3,0.3c-0.2,0.2-0.4,0.4-0.7,0.5
	c-0.3,0.1-0.6,0.2-1,0.2c-0.3,0-0.6-0.1-0.9-0.2c-0.3-0.1-0.5-0.3-0.7-0.5c-0.2-0.2-0.3-0.5-0.4-0.7C10,15.4,10,15.1,10,14.8
	c0-0.3,0.1-0.7,0.2-0.9c0.1-0.3,0.2-0.5,0.4-0.7c0.2-0.2,0.4-0.4,0.7-0.5c0.3-0.1,0.6-0.2,0.9-0.2c0.3,0,0.6,0.1,0.8,0.2
	c0.2,0.1,0.5,0.2,0.6,0.4l-0.2,0.3c0,0,0,0,0,0.1c0,0-0.1,0-0.1,0c0,0-0.1,0-0.1-0.1c-0.2-0.1-0.3-0.2-0.5-0.3
	c-0.2,0-0.3-0.1-0.5-0.1c-0.2,0-0.4,0-0.6,0.1c-0.2,0.1-0.4,0.2-0.5,0.4c-0.1,0.2-0.2,0.3-0.3,0.6c-0.1,0.2-0.1,0.5-0.1,0.7
	c0,0.3,0,0.5,0.1,0.8c0.1,0.2,0.2,0.4,0.3,0.6c0.1,0.2,0.3,0.3,0.5,0.3c0.2,0.1,0.4,0.1,0.6,0.1c0.1,0,0.3,0,0.4,0
	c0.1,0,0.2,0,0.3-0.1c0.1,0,0.2-0.1,0.3-0.1c0.1-0.1,0.2-0.1,0.2-0.2C13.3,16.2,13.4,16.1,13.4,16.1z"/>
<path d="M18.5,14.8c0,0.3-0.1,0.6-0.2,0.9c-0.1,0.3-0.3,0.5-0.5,0.7c-0.2,0.2-0.4,0.4-0.7,0.5c-0.3,0.1-0.6,0.2-0.9,0.2
	c-0.3,0-0.6-0.1-0.9-0.2c-0.3-0.1-0.5-0.3-0.7-0.5c-0.2-0.2-0.4-0.5-0.5-0.7c-0.1-0.3-0.2-0.6-0.2-0.9c0-0.3,0.1-0.6,0.2-0.9
	c0.1-0.3,0.3-0.5,0.5-0.7c0.2-0.2,0.4-0.4,0.7-0.5c0.3-0.1,0.6-0.2,0.9-0.2c0.3,0,0.6,0.1,0.9,0.2c0.3,0.1,0.5,0.3,0.7,0.5
	c0.2,0.2,0.3,0.4,0.5,0.7C18.4,14.2,18.5,14.5,18.5,14.8z M17.9,14.8c0-0.3,0-0.5-0.1-0.7c-0.1-0.2-0.2-0.4-0.3-0.6
	c-0.1-0.2-0.3-0.3-0.5-0.4c-0.2-0.1-0.4-0.1-0.7-0.1c-0.2,0-0.5,0-0.7,0.1c-0.2,0.1-0.4,0.2-0.5,0.4c-0.1,0.2-0.2,0.3-0.3,0.6
	c-0.1,0.2-0.1,0.5-0.1,0.7c0,0.3,0,0.5,0.1,0.7c0.1,0.2,0.2,0.4,0.3,0.6c0.1,0.2,0.3,0.3,0.5,0.3c0.2,0.1,0.4,0.1,0.7,0.1
	c0.2,0,0.5,0,0.7-0.1c0.2-0.1,0.4-0.2,0.5-0.3c0.1-0.2,0.2-0.3,0.3-0.6C17.8,15.3,17.9,15.1,17.9,14.8z"/>
<path d="M20.6,18.8C20.6,18.8,20.7,18.9,20.6,18.8c0.1,0,0.1,0.1,0.1,0.1c0,0,0,0,0,0v0.2H19V19c0-0.1,0-0.1,0.1-0.1l0.8-0.8
	c0.1-0.1,0.1-0.1,0.2-0.2c0.1-0.1,0.1-0.1,0.1-0.2c0-0.1,0.1-0.1,0.1-0.2c0-0.1,0-0.1,0-0.2c0-0.1,0-0.1,0-0.2
	c0-0.1-0.1-0.1-0.1-0.1c0,0-0.1-0.1-0.2-0.1c-0.1,0-0.2,0-0.4,0c-0.1,0-0.2,0.1-0.3,0.2c0,0-0.1,0.1-0.1,0.2c0,0,0,0.1-0.1,0.1
	c0,0-0.1,0-0.1,0l-0.2,0c0-0.1,0.1-0.2,0.1-0.3c0-0.1,0.1-0.2,0.2-0.2c0.1-0.1,0.2-0.1,0.3-0.1c0.1,0,0.2,0,0.3,0c0.1,0,0.2,0,0.3,0
	c0.1,0,0.2,0.1,0.2,0.1c0.1,0.1,0.1,0.1,0.2,0.2c0,0.1,0.1,0.2,0.1,0.3c0,0.1,0,0.2,0,0.3c0,0.1-0.1,0.2-0.1,0.2
	c-0.1,0.1-0.1,0.1-0.2,0.2c-0.1,0.1-0.1,0.1-0.2,0.2l-0.7,0.7c0,0,0.1,0,0.1,0c0,0,0.1,0,0.1,0L20.6,18.8L20.6,18.8z"/>
</svg>
