<?xml version="1.0" encoding="utf-8"?>
<!-- Generator: Adobe Illustrator 25.2.3, SVG Export Plug-In . SVG Version: 6.00 Build 0)  -->
<svg version="1.1" id="Layer_1" xmlns="http://www.w3.org/2000/svg" xmlns:xlink="http://www.w3.org/1999/xlink" x="0px" y="0px"
	 viewBox="0 0 28 20" style="enable-background:new 0 0 28 20;" xml:space="preserve">
<path d="M9.5,0C8.6,0,7.7,0.4,7,1C6.4,1.7,6,2.6,6,3.5C6,5.4,7.6,7,9.5,7S13,5.4,13,3.5S11.4,0,9.5,0z M18.5,0c-0.9,0-1.8,0.4-2.5,1
	c-0.7,0.7-1,1.5-1,2.5C15,5.4,16.6,7,18.5,7S22,5.4,22,3.5S20.4,0,18.5,0z M9.5,2C10.3,2,11,2.7,11,3.5S10.3,5,9.5,5S8,4.3,8,3.5
	S8.7,2,9.5,2z M18.5,2C19.3,2,20,2.7,20,3.5S19.3,5,18.5,5S17,4.3,17,3.5S17.7,2,18.5,2z M5,6c-2.2,0-4,1.8-4,4
	c0,1.1,0.5,2.1,1.2,2.8c-0.7,0.5-1.2,1.1-1.6,1.8C0.2,15.4,0,16.2,0,17h2c0-1.7,1.3-3,3-3s3,1.3,3,3h2c0-0.8-0.2-1.6-0.6-2.4
	c-0.4-0.7-0.9-1.3-1.6-1.8C8.5,12.1,9,11.1,9,10C9,7.8,7.2,6,5,6z M10,17c-0.6,0.8-1,1.9-1,3h2c0-1.7,1.3-3,3-3s3,1.3,3,3h2
	c0-1.1-0.4-2.1-1-3c-0.3-0.5-0.8-0.8-1.2-1.2c0.7-0.7,1.2-1.7,1.2-2.8c0-2.2-1.8-4-4-4s-4,1.8-4,4c0,1.1,0.5,2.1,1.2,2.8
	C10.8,16.2,10.3,16.5,10,17z M18,17h2c0-1.7,1.3-3,3-3s3,1.3,3,3h2c0-0.8-0.2-1.6-0.6-2.4c-0.4-0.7-0.9-1.3-1.6-1.8
	c0.7-0.7,1.2-1.7,1.2-2.8c0-2.2-1.8-4-4-4s-4,1.8-4,4c0,1.1,0.5,2.1,1.2,2.8c-0.7,0.5-1.2,1.1-1.6,1.8C18.2,15.4,18,16.2,18,17z
	 M5,8c1.1,0,2,0.9,2,2s-0.9,2-2,2s-2-0.9-2-2S3.9,8,5,8z M23,8c1.1,0,2,0.9,2,2s-0.9,2-2,2s-2-0.9-2-2S21.9,8,23,8z M14,11
	c1.1,0,2,0.9,2,2s-0.9,2-2,2s-2-0.9-2-2S12.9,11,14,11z"/>
</svg>
