<svg id="Layer_1" data-name="Layer 1" xmlns="http://www.w3.org/2000/svg" viewBox="0 0 70 70"><defs><style>.cls-1{fill:#c4c4c4;}.cls-2,.cls-4{fill:none;stroke:#fff;}.cls-2{stroke-linecap:round;stroke-linejoin:round;}.cls-3{fill:#fff;}.cls-4{stroke-miterlimit:10;opacity:0;}</style></defs><ellipse class="cls-1" cx="35" cy="35" rx="30.78" ry="30"/><path class="cls-2" d="M36.32,23.92s1.33-2.65,6.65-2.65c6.09,0,8.3,6.6,5.62,13.73C46.88,39.53,38.23,48.72,35,48.73s-8.22-5.16-11.51-10.9S19.9,25.5,22.36,23.26c4.88-4.43,11.54,1.33,12.64,2a3.9,3.9,0,0,0,3.54.67l1.55-.45"/><line class="cls-2" x1="51.38" y1="28.35" x2="59.58" y2="28.35"/><line class="cls-2" x1="49.39" y1="40.76" x2="58.69" y2="40.76"/><line class="cls-2" x1="44.96" y1="44.97" x2="53.16" y2="44.97"/><line class="cls-2" x1="17.71" y1="29.46" x2="13.06" y2="29.46"/><line class="cls-2" x1="18.82" y1="33.67" x2="8.41" y2="33.67"/><line class="cls-2" x1="23.69" y1="42.97" x2="15.39" y2="42.97"/><line class="cls-2" x1="61.05" y1="28.35" x2="62.16" y2="28.35"/><line class="cls-2" x1="60.24" y1="40.76" x2="61.35" y2="40.76"/><line class="cls-2" x1="10.63" y1="29.46" x2="11.52" y2="29.46"/><line class="cls-2" x1="5.89" y1="33.67" x2="7" y2="33.67"/><line class="cls-2" x1="63" y1="40.76" x2="64.11" y2="40.76"/><line class="cls-2" x1="7.97" y1="29.46" x2="8.85" y2="29.46"/><rect class="cls-2" x="30.24" y="28.9" width="7.95" height="8.94" rx="3.98"/><path class="cls-2" d="M36,46.22a24.49,24.49,0,0,0,2.68-2.49L40.37,42"/><line class="cls-2" x1="41.23" y1="40.34" x2="42.3" y2="38.73"/><path class="cls-2" d="M24.7,34.62a32.17,32.17,0,0,1,9.52-1.25A61.73,61.73,0,0,1,45,34.62"/><circle class="cls-3" cx="32.54" cy="31.02" r="0.69"/><circle class="cls-3" cx="36.01" cy="31.02" r="0.69"/><circle class="cls-3" cx="32.77" cy="35.31" r="0.69"/><circle class="cls-3" cx="36.01" cy="35.31" r="0.69"/><rect class="cls-4" width="70" height="70"/></svg>