<svg id="Layer_1" data-name="Layer 1" xmlns="http://www.w3.org/2000/svg" viewBox="0 0 29 30"><path d="M13.17.32A1.31,1.31,0,0,1,14,0a1.33,1.33,0,0,1,.86.32l11.54,9.6a4.42,4.42,0,0,1,1.2,1.57,4.79,4.79,0,0,1,.42,2V27a3.07,3.07,0,0,1-.82,2.12,2.72,2.72,0,0,1-2,.88H19.64a2.74,2.74,0,0,1-2-.88A3.12,3.12,0,0,1,16.83,27V18H11.22v9a3.07,3.07,0,0,1-.82,2.12,2.73,2.73,0,0,1-2,.88H2.81a2.74,2.74,0,0,1-2-.88A3.12,3.12,0,0,1,0,27V13.47A4.6,4.6,0,0,1,1.63,9.92ZM14,3.4,3.35,12.28a1.41,1.41,0,0,0-.4.53,1.38,1.38,0,0,0-.14.66V27H8.42V18a3.07,3.07,0,0,1,.82-2.12,2.72,2.72,0,0,1,2-.88h5.61a2.74,2.74,0,0,1,2,.88A3.12,3.12,0,0,1,19.64,18v9h5.61V13.47a1.66,1.66,0,0,0-.14-.66,1.52,1.52,0,0,0-.4-.53L14,3.4Z"/></svg>