<svg width="29" height="30" viewBox="0 0 29 30" fill="none" xmlns="http://www.w3.org/2000/svg">
<path d="M13.1657 0.31603C13.4119 0.111205 13.715 0 14.0269 0C14.3389 0 14.642 0.111205 14.8882 0.31603L26.4296 9.9157C26.9357 10.3367 27.3452 10.8759 27.6267 11.492C27.9082 12.1081 28.0543 12.7849 28.0539 13.4706V27.0001C28.0539 27.7957 27.7583 28.5588 27.2322 29.1213C26.7061 29.6839 25.9925 30 25.2485 30H19.6377C18.8937 30 18.1801 29.6839 17.654 29.1213C17.1279 28.5588 16.8323 27.7957 16.8323 27.0001V18.0004H11.2216V27.0001C11.2216 27.7957 10.926 28.5588 10.3999 29.1213C9.87376 29.6839 9.1602 30 8.41617 30H2.80539C2.06135 30 1.34779 29.6839 0.821679 29.1213C0.295567 28.5588 0 27.7957 0 27.0001V13.4706C0 12.0786 0.600353 10.7707 1.62713 9.9157L13.1657 0.31603ZM14.0269 3.39992L3.34683 12.2826C3.17774 12.4233 3.04102 12.6035 2.94717 12.8094C2.85331 13.0153 2.80481 13.2415 2.80539 13.4706V27.0001H8.41617V18.0004C8.41617 17.2048 8.71173 16.4418 9.23785 15.8792C9.76396 15.3166 10.4775 15.0005 11.2216 15.0005H16.8323C17.5764 15.0005 18.2899 15.3166 18.816 15.8792C19.3422 16.4418 19.6377 17.2048 19.6377 18.0004V27.0001H25.2485V13.4706C25.2491 13.2415 25.2006 13.0153 25.1067 12.8094C25.0129 12.6035 24.8762 12.4233 24.7071 12.2826L14.0269 3.40292V3.39992Z" fill="black"/>
</svg>
