<?xml version="1.0" encoding="utf-8"?>
<!-- Generator: Adobe Illustrator 25.2.3, SVG Export Plug-In . SVG Version: 6.00 Build 0)  -->
<svg version="1.1" id="Layer_1" xmlns="http://www.w3.org/2000/svg" xmlns:xlink="http://www.w3.org/1999/xlink" x="0px" y="0px"
	 viewBox="0 0 23 30" style="enable-background:new 0 0 23 30;" xml:space="preserve">
<style type="text/css">
	.st0{clip-path:url(#SVGID_2_);}
	.st1{fill:#010101;}
</style>
<g>
	<defs>
		<rect id="SVGID_1_" width="22.3" height="30"/>
	</defs>
	<clipPath id="SVGID_2_">
		<use xlink:href="#SVGID_1_"  style="overflow:visible;"/>
	</clipPath>
	<g class="st0">
		<path class="st1" d="M0,12.1c0-0.7,0.4-1.6,1.1-2.8c0.7-1.1,1.4-2.1,2-2.8c0.2-0.2,0.4-0.5,0.6-0.8C4,5.4,4.1,5.3,4.2,5.3l1,1.2
			C6,7.3,6.7,8.2,7.3,9.3c0.6,1.1,1,2,1,2.8c0,1.1-0.4,2.1-1.2,2.9c-0.8,0.8-1.8,1.2-2.9,1.2c-1.2,0-2.1-0.4-3-1.2
			C0.4,14.2,0,13.2,0,12.1z M8.7,23.4c0-0.8,0.2-1.7,0.7-2.7c0.5-1,1-2,1.7-2.9c1.3-1.7,2.5-3,3.7-4.2c0.1-0.1,0.4-0.3,0.7-0.7
			l0.7,0.7c1.1,1,2.3,2.4,3.7,4.1c0.7,0.9,1.3,1.9,1.7,2.9c0.5,1,0.7,1.9,0.7,2.7c0,1.9-0.6,3.4-2,4.7C19,29.4,17.4,30,15.5,30
			c-1.9,0-3.5-0.6-4.8-1.9C9.4,26.8,8.7,25.2,8.7,23.4z M13,4.6c0-1.2,0.9-2.7,2.8-4.6l0.7,0.8c0.5,0.6,1,1.2,1.4,2
			c0.4,0.7,0.6,1.4,0.6,1.9c0,0.8-0.3,1.4-0.8,1.9c-0.6,0.5-1.2,0.7-2,0.7s-1.5-0.2-2-0.8C13.2,6,13,5.4,13,4.6z"/>
	</g>
</g>
</svg>
