<svg id="Layer_1" data-name="Layer 1" xmlns="http://www.w3.org/2000/svg" viewBox="0 0 274.08 138.55"><defs><style>.cls-1{fill:none;stroke:#231f20;stroke-linecap:round;stroke-linejoin:round;stroke-width:4px;}.cls-2{fill:#231f20;}</style></defs><path class="cls-1" d="M142,18.08s6-12,30-12c27.5,0,37.49,29.83,25.37,62-7.7,20.46-46.77,61.93-61.33,62-14.22.08-37.13-23.29-52-49.21C69.44,55.33,67.9,25.18,79,15.08c22-20,52.08,6,57,9s9,5,16,3l7-2"/><line class="cls-1" x1="210.01" y1="38.08" x2="247.01" y2="38.08"/><line class="cls-1" x1="201.01" y1="94.08" x2="243.01" y2="94.08"/><line class="cls-1" x1="181.01" y1="113.08" x2="218.01" y2="113.08"/><line class="cls-1" x1="58.01" y1="43.08" x2="37.01" y2="43.08"/><line class="cls-1" x1="63.01" y1="62.08" x2="16.01" y2="62.08"/><line class="cls-1" x1="85.01" y1="104.08" x2="47.51" y2="104.08"/><line class="cls-1" x1="253.63" y1="38.08" x2="258.63" y2="38.08"/><line class="cls-1" x1="250" y1="94.08" x2="255" y2="94.08"/><line class="cls-1" x1="26.03" y1="43.08" x2="30.03" y2="43.08"/><line class="cls-1" x1="4.65" y1="62.08" x2="9.65" y2="62.08"/><line class="cls-1" x1="262.45" y1="94.08" x2="267.45" y2="94.08"/><line class="cls-1" x1="14.01" y1="43.08" x2="18.01" y2="43.08"/><rect class="cls-1" x="114.55" y="40.54" width="35.9" height="40.34" rx="7.06"/><path class="cls-1" d="M140.62,118.75a116.58,116.58,0,0,0,12.11-11.25l7.56-7.85"/><line class="cls-1" x1="164.17" y1="92.17" x2="169.01" y2="84.91"/><path class="cls-1" d="M89.55,66.35a145,145,0,0,1,43-5.64c24.41.4,48.51,5.64,48.51,5.64"/><circle class="cls-2" cx="124.96" cy="50.12" r="3.13"/><circle class="cls-2" cx="140.62" cy="50.12" r="3.13"/><circle class="cls-2" cx="125.96" cy="69.48" r="3.13"/><circle class="cls-2" cx="140.62" cy="69.48" r="3.13"/></svg>