<svg id="Layer_1" data-name="Layer 1" xmlns="http://www.w3.org/2000/svg" viewBox="0 0 65.04 63.25"><defs><style>.cls-1{fill:#c4c4c4;}.cls-2{fill:none;stroke:#fff;stroke-linecap:round;stroke-linejoin:round;}.cls-3{fill:#fff;}</style></defs><ellipse class="cls-1" cx="32.33" cy="31.86" rx="30.78" ry="30"/><path class="cls-2" d="M33.65,20.78S35,18.12,40.3,18.12c6.09,0,8.3,6.61,5.62,13.74-1.71,4.53-10.36,13.71-13.59,13.73s-8.22-5.16-11.51-10.9S17.24,22.35,19.7,20.12c4.87-4.43,11.53,1.33,12.63,2a3.89,3.89,0,0,0,3.54.66l1.55-.44"/><line class="cls-2" x1="48.72" y1="25.21" x2="56.91" y2="25.21"/><line class="cls-2" x1="46.72" y1="37.62" x2="56.03" y2="37.62"/><line class="cls-2" x1="42.29" y1="41.82" x2="50.49" y2="41.82"/><line class="cls-2" x1="15.05" y1="26.32" x2="10.39" y2="26.32"/><line class="cls-2" x1="16.15" y1="30.53" x2="5.74" y2="30.53"/><line class="cls-2" x1="21.03" y1="39.83" x2="12.72" y2="39.83"/><line class="cls-2" x1="58.38" y1="25.21" x2="59.49" y2="25.21"/><line class="cls-2" x1="57.58" y1="37.62" x2="58.68" y2="37.62"/><line class="cls-2" x1="7.96" y1="26.32" x2="8.85" y2="26.32"/><line class="cls-2" x1="3.23" y1="30.53" x2="4.33" y2="30.53"/><line class="cls-2" x1="60.33" y1="37.62" x2="61.44" y2="37.62"/><line class="cls-2" x1="5.3" y1="26.32" x2="6.19" y2="26.32"/><rect class="cls-2" x="27.57" y="25.75" width="7.95" height="8.94" rx="3.98"/><path class="cls-2" d="M33.35,43.08A25.7,25.7,0,0,0,36,40.59l1.67-1.74"/><line class="cls-2" x1="38.56" y1="37.19" x2="39.63" y2="35.58"/><path class="cls-2" d="M22,31.47a32.17,32.17,0,0,1,9.52-1.25,62.87,62.87,0,0,1,10.74,1.25"/><circle class="cls-3" cx="29.88" cy="27.88" r="0.69"/><circle class="cls-3" cx="33.35" cy="27.88" r="0.69"/><circle class="cls-3" cx="30.1" cy="32.17" r="0.69"/><circle class="cls-3" cx="33.35" cy="32.17" r="0.69"/></svg>