<?xml version="1.0" encoding="utf-8"?>
<!-- Generator: Adobe Illustrator 25.2.3, SVG Export Plug-In . SVG Version: 6.00 Build 0)  -->
<svg version="1.1" id="Layer_1" xmlns="http://www.w3.org/2000/svg" xmlns:xlink="http://www.w3.org/1999/xlink" x="0px" y="0px"
	 viewBox="0 0 32 24" style="enable-background:new 0 0 32 24;" xml:space="preserve">
<path d="M5.4,0h20.3c2.5,2.3,4.2,3.8,5,4.6c0.3,0.1,0.4,0.3,0.4,0.6v2.6c0,0.3-0.1,0.6-0.2,0.9s-0.3,0.5-0.5,0.5h-0.6V22
	c0,0.3,0,0.7-0.1,1.2c-0.1,0.5-0.2,0.7-0.4,0.7h-2.5c-0.2,0-0.4-0.3-0.7-0.8c-0.2-0.5-0.4-0.9-0.4-1.2V9.3H5.4V22
	c0,0.2-0.1,0.6-0.4,1.2C4.8,23.7,4.6,24,4.4,24H1.9c-0.2,0-0.3-0.2-0.4-0.7c-0.1-0.5-0.1-0.9-0.1-1.2V9.3H0.7
	c-0.2,0-0.4-0.2-0.5-0.5C0.1,8.5,0,8.1,0,7.9V5.2c0-0.3,0.1-0.5,0.4-0.6L5.4,0z M24.8,16.2v-5.8h-3.2v5.8c0,0.3,0.1,0.6,0.2,1
	c0.1,0.3,0.3,0.5,0.5,0.5h1.3c0.2,0,0.5-0.2,0.8-0.6C24.6,16.8,24.8,16.5,24.8,16.2z M6.4,16.2v-5.8h3.2v5.8c0,0.3-0.1,0.6-0.2,1
	c-0.1,0.3-0.3,0.5-0.5,0.5H7.6c-0.2,0-0.5-0.2-0.8-0.6C6.5,16.8,6.4,16.5,6.4,16.2z"/>
</svg>
