<?xml version="1.0" encoding="utf-8"?>
<!-- Generator: Adobe Illustrator 25.2.3, SVG Export Plug-In . SVG Version: 6.00 Build 0)  -->
<svg version="1.1" id="Layer_1" xmlns="http://www.w3.org/2000/svg" xmlns:xlink="http://www.w3.org/1999/xlink" x="0px" y="0px"
	 viewBox="0 0 15 30" style="enable-background:new 0 0 15 30;" xml:space="preserve">
<path d="M12,16.5v-12c0-1.2-0.5-2.3-1.3-3.2C9.8,0.5,8.7,0,7.5,0S5.2,0.5,4.3,1.3C3.5,2.2,3,3.3,3,4.5v12c-1.3,0.9-2.2,2.3-2.7,3.8
	c-0.5,1.5-0.5,3.1,0,4.6c0.5,1.5,1.5,2.8,2.7,3.7C4.4,29.5,5.9,30,7.5,30s3.1-0.5,4.4-1.4c1.3-0.9,2.2-2.2,2.7-3.7s0.5-3.1,0-4.6
	C14.2,18.8,13.3,17.4,12,16.5L12,16.5z M7.5,3c0.4,0,0.8,0.2,1.1,0.4C8.8,3.7,9,4.1,9,4.5V15H6V4.5c0-0.4,0.2-0.8,0.4-1.1
	S7.1,3,7.5,3L7.5,3z"/>
</svg>
