<?xml version="1.0" encoding="UTF-8" standalone="no"?>
<!DOCTYPE svg PUBLIC "-//W3C//DTD SVG 1.1//EN"
 "http://www.w3.org/Graphics/SVG/1.1/DTD/svg11.dtd">
<!-- Generated by graphviz version 2.47.0 (20210316.0004)
 -->
<!-- Title: dependencies Pages: 1 -->
<svg width="957pt" height="284pt"
 viewBox="0.00 0.00 957.00 284.00" xmlns="http://www.w3.org/2000/svg" xmlns:xlink="http://www.w3.org/1999/xlink">
<g id="graph0" class="graph" transform="scale(1 1) rotate(0) translate(4 280)">
<title>dependencies</title>
<polygon fill="white" stroke="transparent" points="-4,4 -4,-280 953,-280 953,4 -4,4"/>
<text text-anchor="start" x="453.51" y="-42.4" font-family="sans-serif" font-weight="bold" font-size="14.00">Legend</text>
<polygon fill="#ffffb3" stroke="transparent" points="240.5,-10 240.5,-30 260.5,-30 260.5,-10 240.5,-10"/>
<text text-anchor="start" x="264.13" y="-15.4" font-family="sans-serif" font-size="14.00"> &#160;Declarations</text>
<polygon fill="#8dd3c7" stroke="transparent" points="353.5,-10 353.5,-30 373.5,-30 373.5,-10 353.5,-10"/>
<text text-anchor="start" x="377.23" y="-15.4" font-family="sans-serif" font-size="14.00"> &#160;Module</text>
<polygon fill="#80b1d3" stroke="transparent" points="439.5,-10 439.5,-30 459.5,-30 459.5,-10 439.5,-10"/>
<text text-anchor="start" x="463.28" y="-15.4" font-family="sans-serif" font-size="14.00"> &#160;Bootstrap</text>
<polygon fill="#fdb462" stroke="transparent" points="536.5,-10 536.5,-30 556.5,-30 556.5,-10 536.5,-10"/>
<text text-anchor="start" x="560.17" y="-15.4" font-family="sans-serif" font-size="14.00"> &#160;Providers</text>
<polygon fill="#fb8072" stroke="transparent" points="632.5,-10 632.5,-30 652.5,-30 652.5,-10 632.5,-10"/>
<text text-anchor="start" x="656.23" y="-15.4" font-family="sans-serif" font-size="14.00"> &#160;Exports</text>
<g id="clust1" class="cluster">
<title>cluster_AppModule</title>
<polygon fill="none" stroke="black" stroke-dasharray="1,5" points="8,-70 8,-268 941,-268 941,-70 8,-70"/>
</g>
<g id="clust2" class="cluster">
<title>cluster_AppModule_declarations</title>
<polygon fill="none" stroke="black" points="168,-78 168,-130 933,-130 933,-78 168,-78"/>
</g>
<g id="clust8" class="cluster">
<title>cluster_AppModule_imports</title>
<polygon fill="none" stroke="black" points="16,-78 16,-130 160,-130 160,-78 16,-78"/>
</g>
<g id="clust10" class="cluster">
<title>cluster_AppModule_bootstrap</title>
<polygon fill="none" stroke="black" points="445,-208 445,-260 569,-260 569,-208 445,-208"/>
</g>
<!-- AppComponent -->
<g id="node1" class="node">
<title>AppComponent</title>
<polygon fill="#ffffb3" stroke="black" points="924.94,-122 819.06,-122 819.06,-86 924.94,-86 924.94,-122"/>
<text text-anchor="middle" x="872" y="-99.8" font-family="Times,serif" font-size="14.00">AppComponent</text>
</g>
<!-- AppModule -->
<g id="node6" class="node">
<title>AppModule</title>
<polygon fill="#8dd3c7" stroke="black" points="548.66,-187 545.66,-191 524.66,-191 521.66,-187 465.34,-187 465.34,-151 548.66,-151 548.66,-187"/>
<text text-anchor="middle" x="507" y="-164.8" font-family="Times,serif" font-size="14.00">AppModule</text>
</g>
<!-- AppComponent&#45;&gt;AppModule -->
<g id="edge1" class="edge">
<title>AppComponent&#45;&gt;AppModule</title>
<path fill="none" stroke="black" d="M872,-122.28C872,-143.32 872,-175 872,-175 872,-175 558.87,-175 558.87,-175"/>
<polygon fill="black" stroke="black" points="558.87,-171.5 548.87,-175 558.87,-178.5 558.87,-171.5"/>
</g>
<!-- GameCardComponent -->
<g id="node2" class="node">
<title>GameCardComponent</title>
<polygon fill="#ffffb3" stroke="black" points="800.97,-122 659.03,-122 659.03,-86 800.97,-86 800.97,-122"/>
<text text-anchor="middle" x="730" y="-99.8" font-family="Times,serif" font-size="14.00">GameCardComponent</text>
</g>
<!-- GameCardComponent&#45;&gt;AppModule -->
<g id="edge2" class="edge">
<title>GameCardComponent&#45;&gt;AppModule</title>
<path fill="none" stroke="black" d="M730,-122.02C730,-139.37 730,-163 730,-163 730,-163 558.68,-163 558.68,-163"/>
<polygon fill="black" stroke="black" points="558.68,-159.5 548.68,-163 558.68,-166.5 558.68,-159.5"/>
</g>
<!-- GameComponent -->
<g id="node3" class="node">
<title>GameComponent</title>
<polygon fill="#ffffb3" stroke="black" points="641.26,-122 526.74,-122 526.74,-86 641.26,-86 641.26,-122"/>
<text text-anchor="middle" x="584" y="-99.8" font-family="Times,serif" font-size="14.00">GameComponent</text>
</g>
<!-- GameComponent&#45;&gt;AppModule -->
<g id="edge3" class="edge">
<title>GameComponent&#45;&gt;AppModule</title>
<path fill="none" stroke="black" d="M537.72,-122.11C537.72,-122.11 537.72,-140.99 537.72,-140.99"/>
<polygon fill="black" stroke="black" points="534.22,-140.99 537.72,-150.99 541.22,-140.99 534.22,-140.99"/>
</g>
<!-- NotificationsComponent -->
<g id="node4" class="node">
<title>NotificationsComponent</title>
<polygon fill="#ffffb3" stroke="black" points="508.43,-122 353.57,-122 353.57,-86 508.43,-86 508.43,-122"/>
<text text-anchor="middle" x="431" y="-99.8" font-family="Times,serif" font-size="14.00">NotificationsComponent</text>
</g>
<!-- NotificationsComponent&#45;&gt;AppModule -->
<g id="edge4" class="edge">
<title>NotificationsComponent&#45;&gt;AppModule</title>
<path fill="none" stroke="black" d="M486.69,-122.11C486.69,-122.11 486.69,-140.99 486.69,-140.99"/>
<polygon fill="black" stroke="black" points="483.19,-140.99 486.69,-150.99 490.19,-140.99 483.19,-140.99"/>
</g>
<!-- RestartDialogComponent -->
<g id="node5" class="node">
<title>RestartDialogComponent</title>
<polygon fill="#ffffb3" stroke="black" points="335.59,-122 176.41,-122 176.41,-86 335.59,-86 335.59,-122"/>
<text text-anchor="middle" x="256" y="-99.8" font-family="Times,serif" font-size="14.00">RestartDialogComponent</text>
</g>
<!-- RestartDialogComponent&#45;&gt;AppModule -->
<g id="edge5" class="edge">
<title>RestartDialogComponent&#45;&gt;AppModule</title>
<path fill="none" stroke="black" d="M256,-122.02C256,-139.37 256,-163 256,-163 256,-163 455.27,-163 455.27,-163"/>
<polygon fill="black" stroke="black" points="455.27,-166.5 465.27,-163 455.27,-159.5 455.27,-166.5"/>
</g>
<!-- AppComponent  -->
<g id="node8" class="node">
<title>AppComponent </title>
<polygon fill="#80b1d3" stroke="black" points="561.44,-252 452.56,-252 452.56,-216 561.44,-216 561.44,-252"/>
<text text-anchor="middle" x="507" y="-229.8" font-family="Times,serif" font-size="14.00">AppComponent </text>
</g>
<!-- AppModule&#45;&gt;AppComponent  -->
<g id="edge7" class="edge">
<title>AppModule&#45;&gt;AppComponent </title>
<path fill="none" stroke="black" stroke-dasharray="1,5" d="M507,-187.11C507,-187.11 507,-205.99 507,-205.99"/>
<polygon fill="black" stroke="black" points="503.5,-205.99 507,-215.99 510.5,-205.99 503.5,-205.99"/>
</g>
<!-- AppRoutingModule -->
<g id="node7" class="node">
<title>AppRoutingModule</title>
<polygon fill="#8dd3c7" stroke="black" points="152.27,-122 149.27,-126 128.27,-126 125.27,-122 23.73,-122 23.73,-86 152.27,-86 152.27,-122"/>
<text text-anchor="middle" x="88" y="-99.8" font-family="Times,serif" font-size="14.00">AppRoutingModule</text>
</g>
<!-- AppRoutingModule&#45;&gt;AppModule -->
<g id="edge6" class="edge">
<title>AppRoutingModule&#45;&gt;AppModule</title>
<path fill="none" stroke="black" d="M88,-122.28C88,-143.32 88,-175 88,-175 88,-175 455.29,-175 455.29,-175"/>
<polygon fill="black" stroke="black" points="455.29,-178.5 465.29,-175 455.29,-171.5 455.29,-178.5"/>
</g>
</g>
</svg>
